<mxfile host="app.diagrams.net" modified="2021-06-11T19:49:16.661Z" agent="5.0 (X11; Linux x86_64) AppleWebKit/537.36 (KHTML, like Gecko) Chrome/91.0.4472.101 Safari/537.36" etag="6z1wMtMAwt1E1n1NrOwV" version="14.7.7" type="github">
  <diagram id="zvtmLEDYbtP8JX_s-heJ" name="Page-1">
    <mxGraphModel dx="1119" dy="652" grid="1" gridSize="10" guides="1" tooltips="1" connect="1" arrows="1" fold="1" page="1" pageScale="1" pageWidth="827" pageHeight="1169" math="0" shadow="0">
      <root>
        <mxCell id="0" />
        <mxCell id="1" parent="0" />
        <mxCell id="zlFq9SPbG-taWjbrSAC_-23" value="" style="edgeStyle=orthogonalEdgeStyle;rounded=0;orthogonalLoop=1;jettySize=auto;html=1;" parent="1" source="zlFq9SPbG-taWjbrSAC_-3" target="zlFq9SPbG-taWjbrSAC_-22" edge="1">
          <mxGeometry relative="1" as="geometry" />
        </mxCell>
        <mxCell id="zlFq9SPbG-taWjbrSAC_-38" value="control_cmd" style="edgeLabel;html=1;align=center;verticalAlign=middle;resizable=0;points=[];" parent="zlFq9SPbG-taWjbrSAC_-23" vertex="1" connectable="0">
          <mxGeometry x="-0.4488" y="1" relative="1" as="geometry">
            <mxPoint as="offset" />
          </mxGeometry>
        </mxCell>
        <mxCell id="zlFq9SPbG-taWjbrSAC_-3" value="Kinematic Controller" style="rounded=1;whiteSpace=wrap;html=1;" parent="1" vertex="1">
          <mxGeometry x="261" y="200" width="120" height="85" as="geometry" />
        </mxCell>
        <mxCell id="zlFq9SPbG-taWjbrSAC_-24" value="" style="edgeStyle=orthogonalEdgeStyle;rounded=0;orthogonalLoop=1;jettySize=auto;html=1;" parent="1" source="zlFq9SPbG-taWjbrSAC_-4" target="zlFq9SPbG-taWjbrSAC_-22" edge="1">
          <mxGeometry relative="1" as="geometry" />
        </mxCell>
        <mxCell id="zlFq9SPbG-taWjbrSAC_-37" value="control_cmd&lt;br&gt;" style="edgeLabel;html=1;align=center;verticalAlign=middle;resizable=0;points=[];" parent="zlFq9SPbG-taWjbrSAC_-24" vertex="1" connectable="0">
          <mxGeometry x="0.594" y="1" relative="1" as="geometry">
            <mxPoint x="77" as="offset" />
          </mxGeometry>
        </mxCell>
        <mxCell id="SExScoVYXGapczh3tMus-6" style="edgeStyle=none;rounded=0;orthogonalLoop=1;jettySize=auto;html=1;exitX=0.81;exitY=1.041;exitDx=0;exitDy=0;exitPerimeter=0;" edge="1" parent="1" source="SExScoVYXGapczh3tMus-4" target="zlFq9SPbG-taWjbrSAC_-4">
          <mxGeometry relative="1" as="geometry" />
        </mxCell>
        <mxCell id="zlFq9SPbG-taWjbrSAC_-4" value="Optimization Based&amp;nbsp; Controller" style="rounded=1;whiteSpace=wrap;html=1;" parent="1" vertex="1">
          <mxGeometry x="461" y="200" width="120" height="85" as="geometry" />
        </mxCell>
        <mxCell id="zlFq9SPbG-taWjbrSAC_-34" value="best_on_time_control_cmd" style="edgeStyle=orthogonalEdgeStyle;rounded=0;orthogonalLoop=1;jettySize=auto;html=1;" parent="1" source="zlFq9SPbG-taWjbrSAC_-22" target="zlFq9SPbG-taWjbrSAC_-27" edge="1">
          <mxGeometry x="-0.5" relative="1" as="geometry">
            <Array as="points">
              <mxPoint x="414" y="415" />
              <mxPoint x="414" y="415" />
            </Array>
            <mxPoint as="offset" />
          </mxGeometry>
        </mxCell>
        <mxCell id="zlFq9SPbG-taWjbrSAC_-22" value="Priority-based Control Bus" style="html=1;shadow=0;dashed=0;align=center;verticalAlign=middle;shape=mxgraph.arrows2.arrow;dy=0.6;dx=40;notch=0;" parent="1" vertex="1">
          <mxGeometry x="149" y="325" width="530" height="70" as="geometry" />
        </mxCell>
        <mxCell id="zlFq9SPbG-taWjbrSAC_-33" value="best_on_time_safe_control_cmd" style="edgeStyle=orthogonalEdgeStyle;rounded=0;orthogonalLoop=1;jettySize=auto;html=1;" parent="1" source="zlFq9SPbG-taWjbrSAC_-27" target="zlFq9SPbG-taWjbrSAC_-30" edge="1">
          <mxGeometry x="0.0176" y="46" relative="1" as="geometry">
            <mxPoint as="offset" />
          </mxGeometry>
        </mxCell>
        <mxCell id="zlFq9SPbG-taWjbrSAC_-27" value="Vehicle Safety Layer" style="rounded=1;whiteSpace=wrap;html=1;" parent="1" vertex="1">
          <mxGeometry x="208" y="440" width="412" height="60" as="geometry" />
        </mxCell>
        <mxCell id="zlFq9SPbG-taWjbrSAC_-30" value="Racecar&lt;br&gt;" style="ellipse;shape=doubleEllipse;margin=3;whiteSpace=wrap;html=1;align=center;" parent="1" vertex="1">
          <mxGeometry x="364" y="545" width="100" height="40" as="geometry" />
        </mxCell>
        <mxCell id="SExScoVYXGapczh3tMus-3" style="rounded=0;orthogonalLoop=1;jettySize=auto;html=1;entryX=0.5;entryY=0;entryDx=0;entryDy=0;" edge="1" parent="1" source="SExScoVYXGapczh3tMus-1" target="zlFq9SPbG-taWjbrSAC_-3">
          <mxGeometry relative="1" as="geometry" />
        </mxCell>
        <mxCell id="SExScoVYXGapczh3tMus-5" style="edgeStyle=none;rounded=0;orthogonalLoop=1;jettySize=auto;html=1;exitX=0.183;exitY=1.041;exitDx=0;exitDy=0;exitPerimeter=0;" edge="1" parent="1" source="SExScoVYXGapczh3tMus-4" target="SExScoVYXGapczh3tMus-1">
          <mxGeometry relative="1" as="geometry" />
        </mxCell>
        <mxCell id="SExScoVYXGapczh3tMus-4" value="Global Raceline Manager" style="rounded=1;whiteSpace=wrap;html=1;" vertex="1" parent="1">
          <mxGeometry x="261" y="20" width="319" height="60" as="geometry" />
        </mxCell>
        <mxCell id="SExScoVYXGapczh3tMus-7" value="" style="endArrow=none;dashed=1;html=1;dashPattern=1 3;strokeWidth=2;startArrow=none;" edge="1" parent="1">
          <mxGeometry width="50" height="50" relative="1" as="geometry">
            <mxPoint x="120" y="200" as="sourcePoint" />
            <mxPoint x="680" y="200" as="targetPoint" />
          </mxGeometry>
        </mxCell>
        <mxCell id="SExScoVYXGapczh3tMus-8" value="" style="endArrow=none;dashed=1;html=1;dashPattern=1 3;strokeWidth=2;" edge="1" parent="1">
          <mxGeometry width="50" height="50" relative="1" as="geometry">
            <mxPoint x="119" y="439.9999999999999" as="sourcePoint" />
            <mxPoint x="678.9999999999998" y="439.9999999999999" as="targetPoint" />
          </mxGeometry>
        </mxCell>
        <mxCell id="SExScoVYXGapczh3tMus-9" value="t=f" style="text;html=1;align=center;verticalAlign=middle;resizable=0;points=[];autosize=1;strokeColor=none;" vertex="1" parent="1">
          <mxGeometry x="90" y="180" width="30" height="20" as="geometry" />
        </mxCell>
        <mxCell id="SExScoVYXGapczh3tMus-10" value="t=2f" style="text;html=1;align=center;verticalAlign=middle;resizable=0;points=[];autosize=1;strokeColor=none;" vertex="1" parent="1">
          <mxGeometry x="80" y="420" width="40" height="20" as="geometry" />
        </mxCell>
        <mxCell id="SExScoVYXGapczh3tMus-1" value="Planner" style="rounded=1;whiteSpace=wrap;html=1;" vertex="1" parent="1">
          <mxGeometry x="261" y="110" width="120" height="60" as="geometry" />
        </mxCell>
      </root>
    </mxGraphModel>
  </diagram>
</mxfile>
